
<?xml version="1.0" standalone="no"?>
<!DOCTYPE svg PUBLIC "-//W3C//DTD SVG 1.1//EN" "http://www.w3.org/Graphics/SVG/1.1/DTD/svg11.dtd" >
<svg xmlns="http://www.w3.org/2000/svg">
<metadata>
Created by FontForge 20120731 at Mon Jan 23 15:30:42 2017
 By admin
</metadata>
<defs>
<font id="iconfont" horiz-adv-x="1024" >
  <font-face 
    font-family="iconfont"
    font-weight="500"
    font-stretch="normal"
    units-per-em="1024"
    panose-1="2 0 6 3 0 0 0 0 0 0"
    ascent="896"
    descent="-128"
    x-height="792"
    bbox="-0.892857 -224 1338 896"
    underline-thickness="0"
    underline-position="0"
    unicode-range="U+0078-E938"
  />
<missing-glyph 
 />
    <glyph glyph-name=".notdef" 
 />
    <glyph glyph-name=".notdef" 
 />
    <glyph glyph-name=".null" horiz-adv-x="0" 
 />
    <glyph glyph-name="nonmarkingreturn" horiz-adv-x="341" 
 />
    <glyph glyph-name="x" unicode="x" horiz-adv-x="1001" 
d="M281 543q-27 -1 -53 -1h-83q-18 0 -36.5 -6t-32.5 -18.5t-23 -32t-9 -45.5v-76h912v41q0 16 -0.5 30t-0.5 18q0 13 -5 29t-17 29.5t-31.5 22.5t-49.5 9h-133v-97h-438v97zM955 310v-52q0 -23 0.5 -52t0.5 -58t-10.5 -47.5t-26 -30t-33 -16t-31.5 -4.5q-14 -1 -29.5 -0.5
t-29.5 0.5h-32l-45 128h-439l-44 -128h-29h-34q-20 0 -45 1q-25 0 -41 9.5t-25.5 23t-13.5 29.5t-4 30v167h911zM163 247q-12 0 -21 -8.5t-9 -21.5t9 -21.5t21 -8.5q13 0 22 8.5t9 21.5t-9 21.5t-22 8.5zM316 123q-8 -26 -14 -48q-5 -19 -10.5 -37t-7.5 -25t-3 -15t1 -14.5
t9.5 -10.5t21.5 -4h37h67h81h80h64h36q23 0 34 12t2 38q-5 13 -9.5 30.5t-9.5 34.5q-5 19 -11 39h-368zM336 498v228q0 11 2.5 23t10 21.5t20.5 15.5t34 6h188q31 0 51.5 -14.5t20.5 -52.5v-227h-327z" />
    <glyph glyph-name="anzhuo1" unicode="&#xe631;" 
d="M964 549q23 0 39 -15t16 -36v-299q0 -21 -16 -35.5t-39 -14.5h-19q-23 0 -39 14.5t-16 35.5v299q0 21 16 36t39 15h19zM141 549q23 0 38 -15t15 -36v-299q0 -21 -15 -35.5t-38 -14.5h-19q-23 0 -39.5 14.5t-16.5 35.5v299q0 21 16.5 36t39.5 15h19zM701 784q18 -8 38 -22
t38 -33.5t32 -42t20 -48.5h-577q16 54 51 88.5t71 54.5l-52 82q-2 2 -0.5 7.5t10.5 11.5q8 7 15.5 6.5t9.5 -2.5l52 -83q29 13 60.5 20t64.5 7q69 0 129 -28l54 84q2 2 7.5 2t16.5 -6q11 -5 12.5 -9t-0.5 -6zM417.5 697q13.5 0 22.5 9t9 22.5t-9 22.5t-22.5 9t-22.5 -9
t-9 -22.5t9 -22.5t22.5 -9zM667 701q13 0 22.5 9t9.5 22.5t-9.5 22.5t-22.5 9t-22 -9t-9 -22.5t9 -22.5t22 -9zM829 574l1 -456q0 -23 -15 -38t-36 -15h-14v-142q0 -21 -15 -36t-36 -15h-29q-21 0 -35.5 15t-14.5 36v142h-187v-142q0 -21 -14.5 -36t-36.5 -15h-29
q-20 0 -35 15t-15 36v142h-11q-21 0 -36 15t-15 38v456h573z" />
    <glyph glyph-name="shuaxin" unicode="&#xe600;" horiz-adv-x="1000" 
d="M632 101q-73 -51 -163 -50q-8 0 -23 1q-2 0 -9 1l-18 3q-1 0 -10 2q-11 3 -17 5q-1 0 -4 1t-4 1q-10 4 -19 7l-4 2q-13 6 -21 10l-0.5 0.5l-0.5 0.5q-36 19 -64 47v0.5t-1 0.5q-9 10 -16 19q-2 2 -3 4q-61 76 -61 173h73l-117 176l-118 -176h74q0 -113 64 -207
q1 -1 1.5 -2l0.5 -1q2 -4 13 -17q1 -2 3 -4t2 -3q8 -9 21 -23q2 -1 2 -2q37 -37 83 -62h1l1 -1q13 -7 27 -13q1 -1 3 -2t4 -1q8 -3 23 -9q7 -2 12 -4q10 -3 21 -5q13 -3 14 -3q5 -2 6 -2q4 0 21 -2q5 -1 7 -2q20 -1 37 -1q115 0 209 66q15 11 18.5 28.5t-7.5 32.5
q-10 15 -28 18.5t-33 -7.5zM839 329q0 114 -65 207q0 1 -0.5 2l-0.5 1q-7 9 -17 21q0 1 -1 3q-57 68 -137 103q-1 0 -2.5 0.5t-2.5 0.5q-9 4 -26 10q-8 3 -9 3q-9 3 -23 6q-2 0 -6 1t-7 2q-1 0 -3 0.5t-3 0.5q-3 1 -18 3q-2 0 -5.5 0.5t-6.5 0.5q-12 1 -29 2h-2h-3h-1
q-115 0 -209 -66q-15 -11 -18 -29t7.5 -33t28.5 -18t32 8q73 51 162 50q13 0 25 -2h7q13 -2 20 -4q1 0 8 -1q12 -3 19 -5l6 -2q12 -4 21 -8l1 -0.5l1 -0.5q62 -26 105 -79h1q63 -77 63 -177h-74l118 -176l117 176h-73z" />
    <glyph glyph-name="weixin" unicode="&#x3433;" horiz-adv-x="1000" 
d="M676 471q16 0 34 -2q-23 106 -123.5 176t-229.5 70q-95 0 -175.5 -39.5t-127.5 -108t-47 -150.5q0 -138 140 -236l-35 -106l122 62q89 -18 123 -18q15 0 33 2q-11 37 -11 73q0 115 86.5 196t210.5 81zM485.5 573q22.5 0 38.5 -16t16 -38.5t-16 -38t-38.5 -15.5t-38 15.5
t-15.5 38t15.5 38.5t38 16zM240.5 464q-22.5 0 -38 15.5t-15.5 38t15.5 38.5t38 16t38.5 -16t16 -38.5t-16 -38t-38.5 -15.5zM994 197q0 68 -41.5 127t-110 93t-146.5 34q-124 0 -211 -74.5t-87 -179.5t87 -179.5t211 -74.5q35 0 105 18l96 -53l-26 87q123 92 123 202z
M605 236q-16 0 -27.5 11.5t-11.5 27.5t11.5 27t27.5 11t27 -11t11 -27t-11 -27.5t-27 -11.5zM797 234q-16 0 -27 11.5t-11 27.5t11 27t27 11t27.5 -11t11.5 -27t-11.5 -27.5t-27.5 -11.5z" />
    <glyph glyph-name="shujupaixing" unicode="&#xe606;" horiz-adv-x="1000" 
d="M796 4h-562v-62h562v62zM359 254h-63v-188h63v188zM469 502l-22 22l-132 -132l22 -23zM572 430l14 28l-140 66l-14 -28zM716 620l-25 19l-144 -190l24 -19zM484 379h-63v-313h63v313zM609 317h-62v-251h62v251zM734 442h-63v-376h63v376zM655 667l99 -76l-2 100z" />
    <glyph glyph-name="jiangtai" unicode="&#xe627;" 
d="M719 297q3 -12 -3.5 -20.5t-18.5 -8.5h-370q-12 0 -18.5 8.5t-3.5 20.5l51 215q3 12 13.5 20.5t22.5 8.5h240q12 0 22.5 -8.5t13.5 -20.5zM941 -23q2 -12 -4.5 -20t-18.5 -8h-369q-12 0 -19 8t-4 20l52 216q2 11 12.5 19.5t22.5 8.5h240q12 0 22.5 -8.5t13.5 -19.5z
M498 -23q3 -12 -3.5 -20t-18.5 -8h-370q-12 0 -18.5 8t-4.5 20l52 216q3 11 13.5 19.5t22.5 8.5h240q12 0 22.5 -8.5t12.5 -19.5zM902 302q4 -2 3.5 -3t-4.5 0l-38 6q-11 2 -15 -8l-16 -40q-1 -4 -2 -4t0 5l5 40q2 12 -9 17l-34 17q-4 2 -4 3t5 0l37 -5q12 -2 16 9l15 38
q2 4 3 4t0 -5l-5 -41q-1 -12 9 -17zM348 538q5 -2 4.5 -3.5t-5.5 -0.5l-49 9q-15 2 -20 -11l-20 -51q-2 -6 -3 -5.5t0 6.5l7 52q2 15 -11 21l-45 22q-5 3 -4.5 4t6.5 0l48 -7q15 -2 20 11l20 50q2 5 3 5t0 -6l-6 -54q-2 -14 11 -20zM211 282q4 -2 3.5 -2.5t-3.5 0.5l-21 3
q-9 2 -12 -6l-9 -23q-1 -3 -1.5 -3t-0.5 4l3 23q2 8 -6 12l-19 10q-4 1 -3.5 2t3.5 0l21 -3q9 -1 12 7l8 21q2 4 2.5 3.5t0.5 -3.5l-3 -23q-1 -9 7 -13z" />
    <glyph glyph-name="xiangqing" unicode="&#xe609;" 
d="M22 -41zM403 543q0 41 32.5 71t79.5 30q46 0 79.5 -30t33.5 -71q0 -42 -33 -71t-80 -29t-79.5 29t-32.5 71zM298 266q45 48 103 88q20 14 43 25q21 7 42 11q52 9 98 -1q-45 -156 -37 -237q3 -33 18 -44q15 -6 38 -5q46 3 98 42q-52 -122 -159 -160q-45 -16 -96 -12
q-33 9 -53 45q-44 81 -3 267q-21 2 -59 -9q-5 -1 -16 -5t-17 -5zM64 -106q0 -17 12.5 -30t30.5 -13h811q18 0 30 13t12 30v811q0 18 -12 30.5t-30 12.5h-811q-18 0 -30.5 -12.5t-12.5 -30.5v-811zM1003 -41z" />
    <glyph glyph-name="anzhuo" unicode="&#xe601;" horiz-adv-x="1064" 
d="M-49 -72zM1041 -72zM124 -27zM807 197q0 -23 16 -39.5t38 -16.5q23 0 39 16.5t16 39.5v216q0 23 -16 39.5t-39 16.5q-22 0 -38 -16.5t-16 -39.5v-216zM611 596q0 11 8 18.5t19 7.5t19 -7.5t8 -18.5t-8 -19t-19 -8t-19 8t-8 19zM404 596q0 11 7.5 18.5t18.5 7.5t19 -7.5
t8 -18.5t-8 -19t-19 -8t-18.5 8t-7.5 19zM291 72q0 -18 12.5 -30.5t30.5 -12.5h48v-120q0 -23 16 -39.5t39 -16.5q22 0 38.5 16.5t16.5 39.5v120h84v-120q0 -23 15.5 -39.5t38.5 -16.5t39 16.5t16 39.5v120h48q18 0 30.5 12.5t12.5 30.5v395h-485v-395zM775 502
q-5 55 -39 100t-88 70l44 65q6 8 -1 11q-6 3 -11 -3l-47 -67q-51 19 -100 19q-51 0 -102 -19l-45 67q-7 7 -11 3q-7 -4 -2 -11l45 -65q-55 -26 -89 -70.5t-39 -99.5h485zM149 197q0 -23 16 -39.5t39 -16.5q22 0 38.5 16.5t16.5 39.5v216q0 23 -16.5 39.5t-38.5 16.5
q-23 0 -39 -16.5t-16 -39.5v-216zM941 -27z" />
    <glyph glyph-name="mima" unicode="&#xe65e;" 
d="M763 357v148q0 101 -72 173t-173 72h-2.5h-2.5h-2.5h-1.5q-102 0 -174 -72t-72 -173v-148h-86v-507h675v507h-89zM591 -57h-153l37 164q-37 22 -37 66q0 31 22.5 53.5t54 22.5t54 -22.5t22.5 -53.5q0 -44 -38 -66zM640 357h-254v148q0 50 36 86t87 36h6h3q50 0 86 -36
t36 -86v-148z" />
    <glyph glyph-name="cooperation" unicode="&#xe628;" horiz-adv-x="1025" 
d="M12 307l57 -31q3 -2 8 -3.5t15.5 1.5t16.5 16l142 309q1 3 3 7.5t0 15t-12 16.5l-62 31q-2 2 -5.5 3t-12.5 -2t-14 -13q0 -4 -36.5 -83t-73 -155.5l-36.5 -76.5q-9 -25 10 -35zM947 276l59 28q1 0 2.5 1t6 4.5t6.5 8t3 11.5t-4 16l-146 307q0 1 -1 2.5l-4 6t-7 6.5
t-10 3.5t-12 -1.5l-63 -32q-2 -1 -4.5 -3.5t-7.5 -11t2 -19.5q3 -3 40 -81.5t72.5 -155.5l35.5 -77q0 -1 1 -2t4.5 -5t7 -5.5t9 -3t10.5 2.5zM151 277l19 42l68 -89q5 1 12.5 2t23.5 -3t23 -17q2 -2 4 -6t5.5 -17t-0.5 -28q9 -7 9 -11q31 8 49 -15q2 -1 4.5 -4t7 -14
t3.5 -23q12 -5 14 -12q30 7 45 -11q2 -2 4.5 -5.5t7.5 -13t4 -18.5l28 -21q26 -3 30 -24l24 -19q2 0 4.5 -1t9.5 -1.5t12.5 1t10.5 8.5t5 18l-93 74q0 1 -0.5 3t-0.5 7t1.5 8.5t7.5 6t15 0.5l139 -102q23 -10 37 13q13 19 -6 40l-148 111q0 2 -0.5 4t-1 7t1 9t7 7t14.5 2
l175 -129q25 -10 36 9q14 19 0 39l-194 147q0 2 -0.5 4t-1 8t2 9t8 6t16.5 -1l199 -148q4 -1 9 -2t17 3t18 15q2 3 4 8.5t1 18.5t-11 23l-282 257q-2 1 -6 2.5t-14.5 3t-20.5 0t-22 -10t-21 -24.5q0 -3 -1 -9t-7 -22.5t-16 -29.5t-30 -26t-46 -18q-2 0 -4 0.5t-9 1.5
t-12 3.5l-12 6t-10 9t-5.5 12.5t2.5 17q2 2 5 8t8 27t4 46q2 40 29 73h-102l22 48h154q7 5 18.5 11t41 15.5t50.5 7.5q63 -3 79 -13q9 -3 24 -7.5t47 -10.5t48 -3l137 -297l-21 -52q1 -1 3.5 -4.5t8 -13.5t8 -20.5t0.5 -26t-10 -30.5q-16 -34 -64 -36q5 -35 -19 -55
q-2 -3 -6 -7t-20 -9t-35 -2q0 -4 -0.5 -9.5t-7 -19.5t-18.5 -23q-4 -4 -11 -8t-30 -3t-46 18q-1 -4 -3.5 -10t-15.5 -17.5t-32 -15.5q-30 -5 -48 13q-2 -2 -4 -6t-10 -13t-17 -14t-21.5 -4.5t-25.5 10.5l-3 3t-6 8t-6 12.5t-1 16.5t7 20q-1 -2 -4 -6t-12.5 -12.5t-19 -12.5
t-23 -1t-26.5 16l-2.5 2.5t-5 7.5t-4.5 12.5t1 17.5t9 23q-2 -2 -4.5 -5t-11 -8t-17.5 -7t-21 1t-24 15q-1 0 -2.5 2t-5 8.5t-5 13.5t0 19t7.5 24q-2 -2 -4.5 -5t-11.5 -8.5t-18 -7.5t-22 2t-26 17q-2 2 -4 6t-6 18.5t3 32.5l42 60z" />
    <glyph glyph-name="arrowright" unicode="&#xe632;" 
d="M756 299l-382 375q-7 16 -21.5 25.5t-32.5 9.5q-25 0 -42.5 -17.5t-17.5 -41.5q0 -36 34 -52l303 -299l-303 -298q-15 -7 -24.5 -21t-9.5 -32q0 -24 17.5 -41t42.5 -17q18 0 32.5 9.5t21.5 24.5z" />
    <glyph glyph-name="xiangyou" unicode="&#xe602;" 
d="M284 -69q-14 -14 -14 -33t13.5 -32.5t32.5 -13.5t32 14l397 401q13 14 13 33t-13 33l-397 401q-13 14 -32 14t-32.5 -13.5t-13.5 -32.5t13 -33l351 -369l-350 -369v0v0zM284 -69z" />
    <glyph glyph-name="pingguo" unicode="&#xe65a;" 
d="M884 449q-58 -37 -86 -95t-23.5 -115.5t40 -110.5t96.5 -81q-21 -53 -22 -56q-39 -89 -105 -161q-37 -40 -77.5 -49t-91.5 12q-41 17 -75 24q-47 9 -103 -14q-31 -13 -41 -17q-72 -26 -129 25q-54 49 -101 131q-92 161 -84 327q7 146 106 225q80 64 172 51q12 -2 23.5 -5
t28 -9t22.5 -8q13 -4 28 -10q38 -17 80 -1q68 26 102 34q65 15 134.5 -13t105.5 -84zM698 795q7 -55 -19.5 -111t-77 -91t-105.5 -31q-13 45 15.5 101t81.5 94.5t105 37.5z" />
    <glyph glyph-name="shoucang" unicode="&#xe613;" 
d="M944 420l-287 42q-1 0 -1 1l-128 259q0 1 -1 0l-128 -259q0 -1 -1 -1l-287 -42q-1 0 0 0l207 -202q1 -1 1 -2l-49 -285v-1h1l256 135h1q0 31 14 52t33 21h66v67q0 19 22.5 33t53.5 14q25 0 45 -9l182 177q1 0 0 0zM831 100h-76v76q0 16 -11 27t-27 11t-27 -11t-11 -27
v-76h-76q-15 0 -26.5 -11t-11.5 -26.5t11.5 -27t26.5 -11.5h76v-75q0 -16 11 -27t27 -11t27 11t11 27v75h76q16 0 27 11.5t11 27t-11 26.5t-27 11z" />
    <glyph glyph-name="iconfontcolor11" unicode="&#xe78d;" 
d="M939.5 727.5q-84.5 84.5 -204 84.5t-203.5 -85q-62 -62 -79 -148t15 -163q-3 -2 -5 -4l-440 -440q-9 -9 -16 -25t-7 -30v-97q0 -13 9.5 -22.5t22.5 -9.5l98 1q13 0 22.5 9t9.5 23v93q0 13 9 22.5t23 9.5h93q13 0 22.5 9.5t9.5 22.5v94q0 13 9.5 22.5t22.5 9.5h94
q13 0 29 6.5t26 16.5l124 124q2 2 4 5q77 -32 163 -15t148 79q85 84 85 203.5t-84.5 204zM905.5 535q-32.5 -33 -79 -33t-79.5 33t-33 79.5t33 79t79.5 32.5t79 -32.5t32.5 -79t-32.5 -79.5z" />
    <glyph glyph-name="guanbi" unicode="&#xe614;" 
d="M515 745q-91 0 -174 -35.5t-143 -95.5t-95.5 -143t-35.5 -174t35.5 -174t95.5 -143t143 -95.5t174 -35.5t174 35.5t143 95.5t95.5 143t35.5 174t-35.5 174t-95.5 143t-143 95.5t-174 35.5zM690 200q8 -8 8 -19.5t-8 -19.5l-39 -39q-8 -8 -19.5 -8t-19.5 8l-97 97l-98 -97
q-8 -8 -19 -8t-20 8l-38 39q-9 8 -9 19.5t9 19.5l97 97l-97 98q-9 8 -9 19t9 20l38 38q9 9 20 9t19 -9l98 -97l97 97q8 9 19.5 9t19.5 -9l39 -38q8 -9 8 -20t-8 -19l-97 -98z" />
    <glyph glyph-name="brand" unicode="&#xe610;" 
d="M512 778q-97 0 -185.5 -38t-152.5 -102t-102 -152.5t-38 -185.5t38 -185.5t102 -152.5t152.5 -102t185.5 -38t185.5 38t152.5 102t102 152.5t38 185.5t-38 185.5t-102 152.5t-152.5 102t-185.5 38zM830.5 -18.5q-62.5 -62.5 -143.5 -96.5q-83 -35 -175 -35t-175 35
q-81 34 -143.5 96.5t-96.5 143.5q-35 83 -35 175t35 175q34 81 96.5 143.5t143.5 96.5q83 35 175 35t175 -35q81 -34 143.5 -96.5t96.5 -143.5q35 -84 35 -175t-35 -175q-34 -81 -96.5 -143.5zM533 156q-1 3 -4 3q-2 0 -4 -0.5l-2 -0.5q-5 -1 -11 -1t-11 1q-1 0 -2.5 0.5
t-3.5 0.5q-3 0 -4 -3l-12 -42v-2l10 -56q1 -3 4 -3h37q4 0 4 3l10 58q1 1 0 1l-11 41v0zM782 114q-77 75 -178 100q-2 1 -5 1h-6h-0.5h-0.5l27 -59l-56 -103h211q5 0 8.5 3t3.5 8v41q0 5 -4 9v0zM432 215h-0.5h-0.5h-4h-2h-1q-103 -25 -182 -101q-4 -4 -4 -9v-41
q0 -5 3.5 -8t8.5 -3h210l-56 102l28 60v0zM578 244v36q38 36 42 89v0q9 0 15 6.5t6 15.5q0 15 -12 21q7 20 7 42q0 54 -36.5 92.5t-87.5 38.5t-87.5 -38.5t-36.5 -92.5q0 -22 7 -42q-12 -6 -12 -21q0 -9 6 -15.5t15 -6.5v0q4 -52 41 -88v-37q0 -2 1 -3q4 -9 10.5 -19t23 -25
t31.5 -16h1v0q16 0 32 15t22.5 25.5t10.5 19.5q1 1 1 3v0z" />
    <glyph glyph-name="apple" unicode="&#xe603;" 
d="M837 124q42 -59 96 -77q-24 -72 -75 -151q-79 -119 -156 -119q-28 0 -85 19q-52 20 -91 20t-86 -21q-49 -19 -81 -19q-92 0 -181 157q-89 154 -89 304q0 138 68 226q69 88 172 88q22 0 50 -5.5t57 -20.5q32 -18 52.5 -24.5t31.5 -6.5q14 0 41.5 6t54.5 22q30 17 51.5 25
t44.5 8q71 0 129 -39q30 -20 62 -60q-47 -41 -68 -72q-40 -57 -40 -125q0 -74 42 -135zM631 602q-36 -33 -66 -44q-10 -3 -26 -5.5t-36 -4.5q1 90 47 155.5t151 90.5q2 -10 4 -14v-12q0 -37 -18 -83q-18 -45 -56 -83z" />
    <glyph glyph-name="wanyouxi" unicode="&#xe60a;" 
d="M736 620h-224q2 61 23 89t81 34q13 1 21.5 11.5t7 23.5t-11.5 21.5t-24 7.5q-42 -4 -73.5 -19.5t-47.5 -34t-25.5 -45t-12 -45.5t-2.5 -43h-160q-119 0 -203.5 -84.5t-84.5 -203.5v-319q0 -104 37 -161t107 -63q33 -3 64 4t53.5 17t52 33t46 38t47.5 45q40 39 76 50.5
t68 -1.5t66 -49q34 -35 57 -55.5t56 -42t69.5 -30.5t80.5 -9q69 0 106.5 59t37.5 165v319q0 119 -84.5 203.5t-203.5 84.5zM960 13q0 -154 -80 -160q-33 -3 -60.5 3t-55 25t-44 34t-48.5 47q-6 6 -10 9q-78 79 -150 79t-151 -79q-60 -60 -110.5 -90.5t-106.5 -27.5
q-14 1 -26 7.5t-25 22t-21 49t-8 81.5v319q0 93 66 158.5t158 65.5h448q92 0 158 -65.5t66 -158.5v-319zM384 237h-64v-64h-64v64h-64v63h64v64h64v-64h64v-63zM640 268.5q0 39.5 28 67.5t68 28t68 -28t28 -67.5t-28 -67.5t-68 -28t-68 28t-28 67.5z" />
    <glyph glyph-name="touzi" unicode="&#xe61c;" 
d="M919 471h-815q-17 0 -29 -12t-12 -29v-408q0 -17 12 -29t29 -12h815q17 0 29 12t12 29v408q0 17 -12 29t-29 12zM124.5 430q8.5 0 14 -6t5.5 -14.5t-5.5 -14.5t-14 -6t-14.5 6t-6 14.5t6 14.5t14.5 6zM124.5 22q-8.5 0 -14.5 6t-6 14.5t6 14.5t14.5 6t14 -6t5.5 -14.5
t-5.5 -14.5t-14 -6zM898.5 22q-8.5 0 -14.5 6t-6 14.5t6 14.5t14.5 6t14.5 -6t6 -14.5t-6 -14.5t-14.5 -6zM919 100q-10 4 -20 4q-26 0 -43.5 -18t-17.5 -43q0 -10 3 -21h-659q3 11 3 21q0 25 -18 43t-43 18q-10 0 -20 -4v252q10 -4 20 -4q25 0 43 18t18 44q0 9 -3 20h659
q-3 -11 -3 -20q0 -26 17.5 -44t43.5 -18q10 0 20 4v-252zM898.5 389q-8.5 0 -14.5 6t-6 14.5t6 14.5t14.5 6t14.5 -6t6 -14.5t-6 -14.5t-14.5 -6zM165 511h693q8 0 14 6t6 14.5t-6 14.5t-14 6h-693q-9 0 -15 -6t-6 -14.5t6 -14.5t15 -6zM246 593h530q9 0 15 6t6 14.5
t-6 14.5t-15 6h-530q-8 0 -14 -6t-6 -14.5t6 -14.5t14 -6zM511.5 389q-67.5 0 -115.5 -47.5t-48 -115t48 -115.5t115.5 -48t115 48t47.5 115.5t-47.5 115t-115 47.5zM577 158.5q-5 -11.5 -13.5 -19.5t-20.5 -12t-23 -4v-19h-17v19q-12 0 -24.5 4.5t-21 12.5t-13.5 20t-5 28
h32q-1 -19 7.5 -29.5t24.5 -10.5v67q-3 1 -20 7q-11 4 -20 11t-14 17t-5 26q0 13 5 23t13.5 17t19.5 10.5t21 3.5v18h17v-18q10 0 21 -3.5t19 -10t12.5 -16.5t4.5 -24h-31q0 14 -7 21.5t-19 7.5v-58q4 -2 22 -8q11 -5 20 -11.5t14.5 -17t5.5 -25.5t-5 -26.5zM287 389h-41
q-8 0 -14 -6t-6 -14.5t6 -14.5t14 -6h41q9 0 15 6t6 14.5t-6 14.5t-15 6zM776 104h-40q-9 0 -15 -6t-6 -14.5t6 -14.5t15 -6h40q9 0 15 6t6 14.5t-6 14.5t-15 6zM540.5 202.5q-4.5 3.5 -10.5 5.5q-1 1 -4.5 2.5t-5.5 1.5v-64q12 1 21.5 8.5t9.5 24.5q0 7 -3 12.5t-7.5 9z
M475 278q0 -7 2.5 -11.5t7 -8t9.5 -5.5q1 0 4 -1.5t5 -1.5v55q-12 0 -20 -6t-8 -21z" />
    <glyph glyph-name="daifu" unicode="&#xe688;" horiz-adv-x="1449" 
d="M976 621q32 -71 41 -124h-80q-10 70 -39 124h78zM594 448h136q-1 24 -1.5 56t0.5 74.5t1 61.5h100q3 -89 3 -192h234v-108h-231q3 -39 6.5 -61t9 -42t8.5 -36q30 -167 106 -171q21 -1 31.5 10.5t10.5 36.5h68q1 -59 -26 -87t-84 -28q-151 0 -201 239q-3 19 -9.5 41
t-10 42.5t-6.5 55.5h-145v108zM354 399q58 36 104.5 97t61.5 138h97q-26 -105 -62 -159v-516h-91v425q-28 -14 -110 -38v53zM275 -3q0 -51 51 -96.5t121 -45.5h545q70 0 122 45.5t52 97.5v575q0 73 -50 122.5t-124 49.5h-546q-73 0 -122 -49t-49 -121v-578z" />
    <glyph glyph-name="gerentouxiang" unicode="&#xe703;" 
d="M512 537zM301 536.5q0 87.5 62 149.5t149 62t149 -62t62 -149.5t-62 -149t-149 -61.5t-149 61.5t-62 149zM512 294q-120 0 -222 -58t-162.5 -158t-63.5 -220h896q-2 88 -38.5 168t-96.5 139t-142 94t-171 35z" />
    <glyph glyph-name="jibenzoushi" unicode="&#xe60f;" 
d="M512 749q-91 0 -174.5 -35.5t-143.5 -95.5t-95.5 -143t-35.5 -174t35.5 -174t95.5 -143t143.5 -95.5t174.5 -35.5t174.5 35.5t143.5 95.5t95.5 143t35.5 174t-35.5 174t-95.5 143t-143.5 95.5t-174.5 35.5zM826 261l-88 87l-257 -268l-3 6l-145 170l-135 -114v153
l152 133l6 -6l135 -159l162 169l-87 86l260 2v-259z" />
    <glyph glyph-name="chongzhi" unicode="&#xe67c;" 
d="M62 497v111q0 23 16.5 39t39.5 16h778q23 0 39.5 -16t16.5 -39v-111h-890v0zM62 441v-444q0 -23 16.5 -39.5t39.5 -16.5h632q-27 20 -43 50.5t-16 65.5q0 59 42 101t101 42q36 0 67 -17t51 -45v303h-890zM368 52h-222q-12 0 -20 8t-8 19.5t8 20t20 8.5h222q12 0 20 -8.5
t8 -20t-8 -19.5t-20 -8zM424 163h-278q-12 0 -20 8.5t-8 20t8 19.5t20 8h278q11 0 19 -8t8 -19.5t-8 -20t-19 -8.5zM590 163h-55q-12 0 -20 8.5t-8 20t8 19.5t20 8h55q12 0 20 -8t8 -19.5t-8 -20t-20 -8.5zM836 -67q-51 0 -86.5 36t-35.5 86.5t35.5 86t86 35.5t86.5 -35.5
t36 -86t-36 -86.5t-86 -36v0zM871 54v-12h-28v-15h28v-11h-28v-23h-14v23h-28v11h28v15h-28v12h24l-30 51h16q21 -38 25 -48h1q1 4 8 16l17 32h15l-30 -51h24v0zM836 155q-42 0 -71 -29t-29 -70.5t29 -71t70.5 -29.5t71 29.5t29.5 71t-29.5 70.5t-70.5 29v0z" />
    <glyph glyph-name="touxiang" unicode="&#xe624;" 
d="M512 812q-139 0 -257 -68.5t-186.5 -186.5t-68.5 -257t68.5 -257t186.5 -186.5t257 -68.5t257 68.5t186.5 186.5t68.5 257t-68.5 257t-186.5 186.5t-257 68.5zM776 -61q-25 2 -48.5 8t-50 19t-42.5 38.5t-16 60.5q0 11 -3 25.5t-3 23.5t6 15q12 14 24.5 45.5t17.5 61.5
q1 6 12 13.5t21 20t10 30.5q7 7 8 18.5t-1 22t-4.5 23.5t-2.5 21q3 45 0 94t-21 77q-42 62 -106 84.5t-128.5 0t-107.5 -84.5q-6 -9 -10.5 -22t-6.5 -24t-3 -30t-1.5 -29t0 -33.5t0.5 -32t-3 -21.5t-5.5 -23t-1 -21.5t9.5 -19.5q0 -14 6 -24.5t13.5 -15t14.5 -11t9 -13.5
q19 -83 42 -107q10 -9 10 -18t-5 -22t-5 -24q0 -28 -11.5 -50.5t-28 -35.5t-39 -22t-41 -13t-37.5 -5q-85 62 -134.5 157t-49.5 204q0 122 60 225t163 163t225 60t225 -60t163 -163t60 -225q0 -109 -49.5 -204t-134.5 -157z" />
    <glyph glyph-name="weimingming3" unicode="&#xe623;" horiz-adv-x="1339" 
d="M392 440q47 -13 79 7q13 9 15.5 20t0 16t-7.5 14zM526 605q-27 -18 -4 -48l82 53q-47 15 -78 -5zM167 311q86 -44 193.5 -62t216.5 -7l-34 39q-188 -12 -329 61q-86 44 -122 106.5t-13.5 126.5t98.5 114q116 76 291.5 81.5t306.5 -62.5q11 -5 24 -13v12q0 20 12 37
q-139 68 -319 68q-1 0 -27 -1h-0.5h-0.5q-23 -1 -46 -3h-2q-23 -2 -45 -5h-1q-24 -4 -45 -8h-1q-118 -25 -200 -78v-1q-118 -76 -124 -179q-3 -64 39.5 -123t127.5 -103zM589 386h210v285q-20 14 -42 25q-123 64 -286.5 58.5t-272.5 -76.5q-72 -46 -92.5 -106t13 -118
t113.5 -100q129 -67 301 -58q-13 27 -1 53q8 17 23.5 27t33.5 10zM341 403l-22 -15q-10 -7 -22 0l-3 1l-9 5q-7 3 -7.5 5.5t5.5 6.5l23 15q-21 11 -51.5 36.5t-20.5 31.5q1 1 6 3l58 19q6 2 9 0q1 -1 8 -10t19.5 -22.5t25.5 -22.5l99 65q-1 1 -8.5 10.5t-10 13t-8.5 13
t-7 15t-2 15t2.5 16.5t11 15.5t20.5 16.5q33 22 77 26.5t72.5 -1.5t46.5 -14l24 16q10 7 22 1l12 -6q7 -4 7.5 -6.5t-5.5 -6.5l-25 -16q20 -12 45.5 -35t14.5 -30q-2 -2 -7 -3l-52 -13q-6 -2 -9 0q-1 0 -7 9t-16.5 20.5t-21.5 16.5l-93 -60q1 -1 7 -9.5t7.5 -11t6.5 -10.5
t6 -12t3.5 -11.5t2 -12.5t-2 -12.5t-6 -13.5t-11 -12.5t-16.5 -12.5q-32 -21 -72.5 -26.5t-69.5 -1t-56 14.5zM498 174q-205 0 -361 80q-84 44 -136 106q6 -56 48 -108t118 -91q142 -73 331 -73q100 0 192 23l-62 72q-64 -9 -130 -9zM138 104q-85 44 -137 106q6 -56 48 -108
t118 -91q142 -73 331 -73q163 0 293 56l-54 63q-112 -33 -239 -33q-205 0 -360 80zM498 -126q-205 0 -361 80q-84 44 -136 106q6 -56 48 -108t118 -91q142 -73 331 -73q103 0 199.5 24.5t167.5 70.5v1q7 4 14 9l-44 50q-147 -69 -337 -69zM1066 315v384h-181v-384h-272
l363 -419l362 419h-272z" />
    <glyph glyph-name="iconfontqueren2" unicode="&#xe62c;" 
d="M510 749q-91 0 -174 -35.5t-143 -95.5t-95.5 -143t-35.5 -174t35.5 -173.5t95.5 -142.5t143 -95.5t174 -35.5t174 35.5t142.5 95.5t95 142.5t35.5 173.5t-35.5 174t-95 143t-142.5 95.5t-174 35.5zM778 417l-260 -330q-13 -16 -34 -18h-4q-19 0 -32 12l-187 164
q-16 13 -17 33.5t12.5 35.5t33.5 16.5t35 -11.5l148 -131l229 290q12 16 32 18.5t36 -10t18.5 -33t-10.5 -36.5z" />
    <glyph glyph-name="xiangqing1" unicode="&#xe64a;" 
d="M357 -52zM512 706q-110 0 -203.5 -54.5t-148 -148t-54.5 -203.5t54.5 -203.5t148 -148t203.5 -54.5t203.5 54.5t148 148t54.5 203.5t-54.5 203.5t-148 148t-203.5 54.5zM695 97h-366v406h366v-406zM390 402h244v-41h-244v41zM390 320h244v-40h-244v40zM390 239h244v-41
h-244v41z" />
    <glyph glyph-name="caiwuduizhang" unicode="&#xe626;" 
d="M301 0q0 22 -15.5 37.5t-37.5 15.5h-142q-22 0 -37.5 -15.5t-15.5 -37.5t15.5 -37.5t37.5 -15.5h142q22 0 37.5 15.5t15.5 37.5v0zM106 547h142q22 0 37.5 15.5t15.5 37.5t-15.5 37.5t-37.5 15.5h-142q-22 0 -37.5 -15.5t-15.5 -37.5t15.5 -37.5t37.5 -15.5v0zM53 300
q0 -22 15.5 -37.5t37.5 -15.5h142q22 0 37.5 15.5t15.5 37.5t-15.5 37.5t-37.5 15.5h-142q-22 0 -37.5 -15.5t-15.5 -37.5v0zM971 -159v918q0 22 -21.5 37.5t-51.5 15.5h-55h-127v0h-504q-22 0 -37.5 -15.5t-15.5 -37.5v-53h89q44 0 75 -31t31 -75t-31 -75t-75 -31h-89v-88
h89q44 0 75 -31t31 -75t-31 -75t-75 -31h-89v-88h89q44 0 75 -31t31 -75t-31 -75t-75 -31h-89v-53q0 -22 15.5 -37.5t37.5 -15.5h504h18h164v0q30 0 51.5 15.5t21.5 37.5v0zM808 373v-73h-107v-79h107v-63h-107v-119h-97v119h-111v63h111v79h-111v73h89l-109 190h94l88 -172
l91 172h88l-113 -190h87v0zM898 -212h65v0h-65v0v0zM898 -212z" />
    <glyph glyph-name="gengduo" unicode="&#xe604;" 
d="M128 556h86v-85h-86v85zM341 556h555v-85h-555v85zM128 343h86v-86h-86v86zM341 343h555v-86h-555v86zM128 129h86v-85h-86v85zM341 129h555v-85h-555v85z" />
    <glyph glyph-name="wan" unicode="&#xe60b;" 
d="M894 781h-471v-65h471v65zM327 348h40v62h-40v295h45v61h-258v-61h44v-295h-40v-62h40v-286h-51v-61h271v61h-51v286zM917 468v64h-515v-64h58l-58 -481h191l59 481h22v-481h243v65h-53v416h53z" />
    <glyph glyph-name="zaixiankefu" unicode="&#xe60c;" 
d="M511 714q-107 0 -183 -76.5t-76 -184t76 -183.5t183 -76t183 76t76 183.5t-76 184t-183 76.5v0v0zM511 238q-89 0 -151.5 63.5t-62.5 152.5t62.5 152t151.5 63t152 -63t63 -152t-63 -152.5t-152 -63.5v0v0zM762 231l-14 7l-12 -10q-41 -38 -100 -58.5t-125 -20.5
t-125 20.5t-100 58.5l-12 10l-13 -7q-85 -45 -124 -104.5t-46 -153.5q-1 -9 5 -16t15 -8h2q9 0 15 6t7 15q6 79 36 127.5t97 86.5q99 -79 243.5 -79t242.5 79q68 -38 98 -86.5t35 -127.5q1 -10 8 -16t16 -5t15 8t6 16q-7 94 -46.5 153.5t-123.5 104.5v0v0zM215 350v196
q25 103 107 168t190 65q106 0 187.5 -63.5t107.5 -165.5v-198v0q44 0 74 30.5t30 74.5q0 30 -16 55.5t-43 38.5q-26 120 -121 196.5t-219.5 76.5t-219 -76.5t-121.5 -196.5q-27 -13 -43 -38t-16 -56q0 -44 30 -75.5t73 -31.5v0v0zM215 350z" />
    <glyph glyph-name="wenhaosvg" unicode="&#xe61d;" 
d="M492 800q-113 0 -209 -53.5t-151.5 -146.5t-55.5 -202q0 -118 66 -217q2 -2 5 -7q8 -14 8 -29l-44 -177l168 62q11 5 24 5q12 0 23 -4v-1q2 0 3 -1q78 -32 163 -32q113 0 209 54t151.5 146.5t55.5 201.5t-55.5 201.5t-151.5 146t-209 53.5zM516 154h-66v66h66v-66z
M562 381q-53 -34 -50 -85v-18h-53v23q-2 66 57 108q71 46 67 94q-7 69 -83 73q-82 2 -105 -94l-60 14q30 135 177 131q124 -7 135 -120q5 -71 -85 -126z" />
    <glyph glyph-name="shezhi" unicode="&#xe938;" 
d="M829 342q3 24 3 42t-3 42l90 70q14 11 5 28l-85 147q-9 16 -26 10l-106 -43q-35 26 -73 42l-16 113q-1 7 -7 12.5t-14 5.5h-170q-8 0 -14 -5.5t-7 -12.5l-16 -113q-37 -15 -73 -42l-106 43q-17 6 -26 -10l-85 -147q-10 -16 5 -28l90 -70q-3 -24 -3 -42t3 -42l-90 -70
q-14 -11 -5 -28l85 -147q9 -16 26 -10l106 43q35 -26 73 -42l16 -113q1 -7 7 -12.5t14 -5.5h170q8 0 14 5.5t7 12.5l16 113q37 15 73 42l106 -43q17 -6 26 10l85 147q9 17 -5 28zM512 235q-62 0 -105.5 43.5t-43.5 105.5t43.5 105.5t105.5 43.5t105.5 -43.5t43.5 -105.5
t-43.5 -105.5t-105.5 -43.5z" />
    <glyph glyph-name="mima1" unicode="&#xe680;" 
d="M800 530v79q-1 119 -87 203t-206 84t-206 -84.5t-87 -203.5v-78q-55 -5 -93 -45.5t-38 -96.5v-374q0 -58 41.5 -100t100.5 -42h569q59 0 100.5 42t41.5 100v374q0 57 -39.5 98.5t-96.5 43.5v0zM263 608q1 96 73 166t169 70t171 -70t75 -165v-78h-488v77v0zM892 14
q0 -35 -31.5 -65t-66.5 -30h-569q-35 0 -65.5 30t-30.5 65v374q0 37 25.5 68.5t59.5 31.5h569q36 0 72.5 -32.5t36.5 -67.5v-374v0zM892 14zM507 386q-49 0 -83.5 -34t-34.5 -83q0 -57 47 -92v-119q0 -12 8.5 -20t20.5 -8h85q11 0 19.5 8t8.5 20v119q47 35 47 93
q0 48 -34.5 82t-83.5 34v0zM550 209q-18 -9 -18 -30v-108h-48v108q0 21 -18 30q-32 17 -32 63q0 30 21.5 51t52 21t52 -21t21.5 -51q0 -46 -31 -63v0z" />
    <glyph glyph-name="xiaoxi" unicode="&#xe6bf;" horiz-adv-x="1056" 
d="M995 238q0 109 -79 190q-3 -104 -61 -191t-154.5 -138t-210.5 -51q-18 0 -37 2q44 -45 104 -71t128 -26q39 0 77 9l108 -54q18 -9 26.5 -3.5t6.5 15t-1 10.5l-20 88q53 40 83 97.5t30 122.5zM859 468.5q0 99.5 -53 183.5t-144.5 133t-199.5 49t-199.5 -49t-144.5 -133
t-53 -184q0 -83 38.5 -156.5t105.5 -125.5l-25 -113v0q0 -2 -0.5 -4t-0.5 -7t1 -9t3.5 -8t6.5 -6t12 -0.5t19 6.5l139 69q48 -11 98 -11q108 0 199.5 49t144.5 133t53 183.5zM326 530.5q-5 -18.5 -22 -28t-35.5 -4t-28 22t-4 35t22 28t35 4.5t28 -22t4.5 -35.5zM639 440.5
q5 18.5 22 28t35.5 4t28 -22.5t4 -35.5t-22.5 -27.5t-35.5 -4t-27.5 22t-4 35.5zM437.5 498.5q5.5 18.5 22.5 27.5t35.5 4t27.5 -22t4 -35.5t-22 -28t-35.5 -4t-28 22.5t-4 35.5z" />
    <glyph glyph-name="duijiangjiandan" unicode="&#xe63f;" 
d="M512.5 799q-114.5 0 -212 -56.5t-153.5 -153.5t-56 -211.5t56 -211.5t153.5 -153.5t212 -56.5t211.5 56.5t153.5 153.5t56.5 211.5t-56.5 211.5t-153.5 153.5t-211.5 56.5zM763 271h-326l99 -99l-51 -50l-225 224h503v-75zM260 422v76h326l-98 98l50 50l225 -224h-503z
" />
    <glyph glyph-name="NEWS-copy" unicode="&#xe607;" 
d="M386 711q-60 -23 -109 -65.5t-81 -99.5h134q18 96 56 165zM502 546v188q-41 -2 -83 -13q-42 -71 -62 -175h145zM830 546q-64 116 -185 163q37 -68 56 -163h129zM611 721q-40 11 -82 13v-188h145q-20 103 -63 175zM644 34q122 47 186 164h-130q-18 -96 -56 -164zM529 198
v-187q44 2 82 12q42 70 62 175h-144zM197 198q31 -57 80 -99.5t110 -65.5q-38 68 -57 165h-133zM420 23q42 -11 82 -13v188h-145q21 -106 63 -175zM232 261v234h-29v-184l-123 184h-32v-234h30v184l123 -184h31zM454 467v28h-169v-234h174v27h-143v80h129v27h-129v72h138z
M543 261h32l49 178q3 11 7 27q1 -5 7 -27l50 -178h29l65 234h-32l-36 -151q-7 -28 -12 -50q-5 38 -18 82l-34 119h-37l-44 -158q-2 -6 -11 -43q-4 23 -10 47l-35 154h-32zM976 360.5q-10 14.5 -30 23.5q-14 6 -51.5 14.5t-46.5 17t-9 20.5q0 15 12.5 25t40.5 10q27 0 41 -11
t16 -33l30 2q-1 20 -11.5 36.5t-30.5 25t-46 8.5q-24 0 -43 -8t-29 -23.5t-10 -33.5q0 -16 8 -29t25 -22q13 -7 45 -14.5t42 -11.5q14 -5 20.5 -13.5t6.5 -19t-6.5 -20t-20 -14.5t-31.5 -5q-20 0 -36 7t-23.5 18t-9.5 29l-29 -3q0 -23 12.5 -42t34 -28t52.5 -9q26 0 46 9
t30.5 25.5t10.5 35.5t-10 33.5z" />
    <glyph glyph-name="trophyfill" unicode="&#xe6a9;" 
d="M991 612q0 12 -9 20t-21 8h-114q0 5 1 6q2 36 2 67q0 30 -2 68q-2 15 -13 25.5t-26 10.5h-594q-15 0 -26 -10.5t-13 -25.5q-2 -38 -2 -68q0 -31 2 -67q0 -1 1 -6h-114q-12 0 -21 -8t-9 -20q0 -3 -1 -12.5t2 -28.5t7.5 -39t16.5 -45t29 -45q57 -67 161 -77l0.5 -1l0.5 -1
q42 -85 102 -138q58 -52 126 -65h4v-140h-149q-13 0 -22 -9t-9 -21.5t9 -21.5t22 -9h360q13 0 22 9t9 21.5t-9 21.5t-22 9h-149v140h4q68 13 126 65q60 53 102 138l0.5 1l0.5 1q104 10 161 77q17 20 29 45t16.5 45t7.5 39t2 28.5t-1 12.5zM134 481q-33 38 -39 98h91
q14 -74 39 -148q-58 12 -91 50zM890 481q-33 -38 -91 -50q25 74 39 148h91q-6 -60 -39 -98z" />
    <glyph glyph-name="anquan" unicode="&#xe62a;" 
d="M937 800l-425 80l-417 -80l-37 -5v-514q0 -46 23 -92q24 -45 62 -88t86 -82q49 -38 99 -68q51 -30 97.5 -50t81.5 -27l10 -2l11 2q35 7 80.5 27t94.5 50q48 30 95 68q48 39 84.5 82t59 88.5t22.5 91.5v514zM873 271q0 -36 -17 -70q-17 -35 -45 -67q-29 -32 -66 -60
t-76.5 -50.5t-80.5 -39.5t-76 -25v461h-363v324l358 62l5 -1v-385h361v-149z" />
    <glyph glyph-name="tianjiaguize" unicode="&#xe61a;" 
d="M555 -47l-9 -7q-29 -19 -60.5 -4t-33.5 50q-1 4 -1 9v317l1 5q0 1 -1 2l-6 -1h-159h-158q-32 0 -51 23q-14 18 -12.5 42t18.5 40q18 17 45 17h180.5h137.5l7 -1q-2 6 -2 7v316q0 37 31 56q28 17 58.5 1t32.5 -49v-9v-316v-5h5h319q29 0 49 -22q16 -18 14 -44t-21 -42
q-18 -14 -43 -14h-169.5h-147.5l-7 1l1 -7v-315q0 -29 -15 -47l-2 -2l-0.5 -0.5z" />
    <glyph glyph-name="gantanhao11-copy" unicode="&#xe67e;" 
d="M512 -128q-139 0 -257 68.5t-186.5 186.5t-68.5 257t68.5 257t186.5 186.5t257 68.5t257 -68.5t186.5 -186.5t68.5 -257t-68.5 -257t-186.5 -186.5t-257 -68.5zM512 828q-90 0 -172.5 -35.5t-141.5 -94.5t-94.5 -141.5t-35.5 -172.5t35.5 -172.5t94.5 -141.5t141.5 -94.5
t172.5 -35.5t172.5 35.5t141.5 94.5t94.5 141.5t35.5 172.5t-35.5 172.5t-94.5 141.5t-141.5 94.5t-172.5 35.5zM512 77q-28 0 -48 20t-20 48t20 48t48 20t48 -20t20 -48t-20 -48t-48 -20zM512 282q-14 0 -24 20t-10 48l-34 307q0 28 20 48t48 20t48 -20t20 -48l-34 -307
q0 -28 -10 -48t-24 -20z" />
    <glyph glyph-name="icon01" unicode="&#xe629;" 
d="M619 226l-170 -68h439q18 0 31 12.5t13 30.5v25h-313zM888 589h-91l76 -188q8 -20 2.5 -41t-21.5 -35h78v220q0 18 -13 31t-31 13zM225 139q6 -17 23 -24t33 0l546 221q17 7 24 23.5t0 33.5l-9 23l-627 -254zM722 712q-7 16 -23.5 23t-33.5 1l-546 -222q-16 -7 -23 -23.5
t-1 -32.5l83 -204l626 254z" />
    <glyph glyph-name="meiyuan" unicode="&#xe625;" 
d="M508.5 834q-92.5 0 -177 -36t-145 -97t-97 -145t-36.5 -176.5t36.5 -177t97 -145.5t145 -97t177 -36t176.5 36t145 97t97 145.5t36 177t-36 176.5t-97 145t-145 97t-176.5 36zM546 127v-85h-82v78q-83 4 -140 36l24 96q67 -36 138 -36q36 0 58 13.5t22 37.5
q0 23 -21 39.5t-68 32.5q-72 24 -110 59.5t-38 91.5t36.5 95.5t102.5 52.5v78h81v-73q65 -2 121 -27l-25 -93q-61 29 -119 29q-37 0 -54 -13.5t-17 -33.5t23 -35.5t77 -34.5q74 -26 106 -62.5t32 -93.5t-38.5 -99t-108.5 -53v0z" />
    <glyph glyph-name="sub" unicode="&#xe61b;" 
d="M903 325h-782q-24 0 -41.5 17.5t-17.5 41.5t17.5 41.5t41.5 17.5h782q24 0 41.5 -17.5t17.5 -41.5t-17.5 -41.5t-41.5 -17.5z" />
    <glyph glyph-name="jiangliduihuan" unicode="&#xe61e;" 
d="M647 198h-263l78 79l-252 252q-54 -94 -39 -205t95 -191q46 -47 106.5 -72t121 -26.5t121.5 20t109 66.5l53 -53q-115 -106 -271 -107.5t-273 101.5l-20 18q-76 76 -104.5 177.5t-4.5 204.5t96 181l13 -12l434 -433v0zM384 566h263l-79 -79l244 -244q18 45 22.5 93.5
t-4.5 95.5t-32 92t-59 81q-88 87 -210.5 97t-219.5 -61l-54 53q60 44 131.5 65.5t142.5 17t139.5 -34.5t122.5 -84q71 -72 101 -167t12.5 -192t-76.5 -177z" />
    <glyph glyph-name="bangzhu" unicode="&#xe60d;" 
d="M878 421v0q0 109 -54 201.5t-146.5 146.5t-202 54t-202 -54t-146.5 -146.5t-54 -202t54 -202t146.5 -146.5t202 -54t202 54t146.5 146.5t54 202.5v0zM951 421v0q0 -97 -37.5 -185t-101.5 -152t-152 -101.5t-184.5 -37.5t-184.5 37.5t-152 101.5t-101.5 152t-37.5 184.5
t37.5 184.5t101.5 152t152 101.5t184.5 37.5t184.5 -37.5t152 -101.5t101.5 -152t37.5 -184v0zM439 238h73v-73h-73v73zM293 506v9.5t4 24t10 33.5t20 36t32.5 34t48.5 24t67.5 10t67.5 -8.5t48.5 -22t32.5 -30t20 -33t9.5 -30t4.5 -22.5v-8q0 -23 -22.5 -53.5t-50 -55.5
t-50.5 -52t-23 -44v-7h-73v7q0 23 23 53.5t50 55.5t50 52t23 44q0 15 -4.5 28t-15.5 27t-34 22t-56 8q-25 0 -46 -10.5t-32 -25.5t-18.5 -30t-10.5 -26l-2 -10h-73z" />
    <glyph glyph-name="yinxing" unicode="&#xe636;" 
d="M504 896l-435 -291h883l-448 291v0zM564 365l-49 -96q-3 -6 -11 -23q-5 13 -10 22l-51 97h-42l70 -131h-57v-34h72v-20h-72v-32h72v-60h38v60h71v32h-71v20h71v34h-57l70 131h-44v0zM504 43q-81 0 -138.5 58.5t-57.5 141t57.5 141t139 58.5t139 -58.5t57.5 -141
t-57.5 -141t-139.5 -58.5v0zM504 469q-92 0 -157.5 -66.5t-65.5 -160.5t65.5 -160t158 -66t158 66t65.5 160t-65.5 160.5t-158.5 66.5v0zM318 -9h109v12q-63 20 -109 70v-82v0zM586 -9h109v97q-43 -56 -109 -80v-17v0zM54 590v-85h34v-514h109v514h121v-87q47 50 109 70v17
h159v-22q66 -25 109 -80v102h130v-514h109v514h34v85h-914v0zM54 -128h914v104h-914v-104v0zM54 -128z" />
    <glyph glyph-name="datinglight" unicode="&#xe633;" 
d="M942.5 364q-8.5 0 -14.5 6l-416 415l-416 -415q-6 -6 -14.5 -6t-14.5 6t-6 14t6 14l431 431q6 6 14 6t14 -6l431 -431q6 -6 6 -14t-6 -14t-14.5 -6zM824 -67h-228q-8 0 -14 6t-6 15v115q0 27 -19 45.5t-45 18.5t-45 -18.5t-19 -45.5v-115q0 -9 -6 -15t-14 -6h-228
q-9 0 -15 6t-6 15v420q0 8 6 14l312 318q6 5 15 5t15 -5l312 -318q6 -6 6 -14v-420q0 -9 -6 -15t-15 -6z" />
    <glyph glyph-name="wanshanziliao" unicode="&#xe62e;" 
d="M613 880h-403q-42 0 -71.5 -30t-29.5 -71v-806q0 -42 29.5 -71.5t70.5 -29.5h605q42 0 71.5 29.5t29.5 71.5v604zM713 74h-403v100h403v-100zM713 275h-403v101h403v-101zM562 527v277l277 -277h-277z" />
    <glyph glyph-name="duijiangtikuan" unicode="&#xe61f;" 
d="M603 675q0 -5 -3 -8t-8 -3h-161q-4 0 -7 3t-3 8v6q0 5 3 8t7 3h161q5 0 8 -3t3 -8v-6v0zM600 736q-2 -9 -10 -16t-18 -7h-116q-9 0 -17.5 7t-11.5 16l-26 56q-2 10 3 17t14 7q7 0 15 -16.5t15 -16.5q6 0 16.5 16.5t18.5 16.5t17 -16.5t15 -16.5t13 16.5t13 16.5
q7 0 17 -16.5t18 -16.5t15 16.5t14 16.5q10 0 15 -7t3 -17zM587 628h-150q-90 -32 -153.5 -120.5t-63.5 -184.5q0 -118 70 -174.5t222 -56.5t222 56.5t70 174.5q0 96 -63.5 184.5t-153.5 120.5zM512 133q-129 0 -188.5 47.5t-59.5 147.5q0 82 54 157t130 102h128
q76 -27 130 -102t54 -157q0 -100 -59.5 -147.5t-188.5 -47.5zM597 304v0l-53 1v26h53v0q11 0 18.5 8t7.5 19t-7.5 18.5t-18.5 8.5v0h-53v0.5v0.5l62 65q12 14 -5 32q-8 8 -18.5 9t-16.5 -6l-53 -58l-57 59q-6 6 -15 4t-16.5 -9.5t-9.5 -17t4 -15.5l58 -60q-1 -1 -2 -4h-48
v-1v0q-10 0 -18 -7.5t-8 -18.5t8 -19t18 -8v0v0h53v-27h-53v0v0q-10 0 -18 -7.5t-8 -19t8 -19t18 -7.5v0v0h53v-27v0q-1 -3 -1 -7q0 -14 9.5 -23.5t23 -9.5t23 9.5t9.5 23.5v7v0v27h53q11 0 18.5 7.5t7.5 19t-7.5 19t-18.5 7.5z" />
    <glyph glyph-name="iconCode" unicode="&#xe611;" 
d="M512 -55l-235 125l-111 186v441l202 31l144 95l144 -95l202 -31v-441l-111 -186zM312 108l200 -107l200 107l96 162v384l-175 30l-121 79l-131 -83l-165 -26v-384zM479 236l-156 155l36 35l120 -120l216 216l35 -35z" />
    <glyph glyph-name="duigou" unicode="&#xe622;" 
d="M512 896q-138 0 -256 -69t-187 -187t-69 -256t69 -256t187 -187t256 -69t256 69t187 187t69 256t-69 256t-187 187t-256 69zM845 531l-429 -429l-237 237q-19 19 -19 45t19 45t45 19t45 -19l147 -147l339 339q19 19 45 19t45 -19t19 -45t-19 -45z" />
    <glyph glyph-name="chongzhi1" unicode="&#xe620;" 
d="M951 384h73q0 104 -39.5 197.5t-110.5 164.5t-164.5 110.5t-197.5 39.5t-197.5 -39.5t-164.5 -110.5t-110.5 -164.5t-39.5 -197.5t39.5 -197.5t110.5 -164.5t164.5 -110.5t197.5 -39.5q112 0 212 46q90 41 158 112l2 -1l53 -39l6 193l-174 -70l51 -37l3 -2
q-58 -58 -129 -90q-86 -40 -183 -40q-89 0 -169.5 34t-141.5 95t-94.5 141t-33.5 170q0 89 34 169.5t94.5 141.5t141 95t169.5 34q90 0 170 -34t141 -95t95 -141.5t34 -169.5zM626 590l-75 -115q-29 -46 -36 -63h-1q-19 36 -112 178h-70l131 -188h-107v-42h125v-57h-125v-42
h125v-83h63v83h121v42h-121v57h121v42h-104l132 188h-67z" />
    <glyph glyph-name="jingshi" unicode="&#xe62f;" horiz-adv-x="1025" 
d="M1023 81l-3 -15q-1 -2 -5 -9q-5 -9 -10 -15q-1 -1 -8 -7q-1 0 -4 -3t-5 -4q-1 -1 -2.5 -1.5t-2.5 -0.5q-2 -1 -12 -4t-16 -3q-1 0 -2 -0.5t-2 -0.5h-877q-1 0 -2 0.5t-2 0.5q-6 0 -16 3t-12 4l-2 0.5t-3 1.5q-2 1 -5 4l-4 4q-7 6 -8 6q-5 6 -10 15q-9 18 -9 34q0 1 0.5 3
l0.5 2v1q6 31 19 45l428 718v0.5v0.5q6 8 16 16q0 1 2 2.5t3 2.5t2.5 2t2.5 2q2 1 6 2t5 2q8 3 11 3q5 1 14.5 1t14.5 -1q3 0 12 -4q1 0 5 -1t6 -2q0 -1 1.5 -2t2.5 -2q1 0 7 -6q9 -8 13 -14l0.5 -1t1.5 -1l428 -717q16 -16 20 -43l0.5 -1.5t0.5 -2t0.5 -2.5t0.5 -3
q0 -2 -1 -5.5t-1 -4.5zM586 603q0 31 -21.5 52.5t-52 21.5t-52 -21.5t-21.5 -52.5v-219q0 -30 21.5 -51.5t52 -21.5t52 21.5t21.5 51.5v219zM512.5 238q-30.5 0 -52 -21.5t-21.5 -52t21.5 -52t52 -21.5t52 21.5t21.5 52t-21.5 52t-52 21.5z" />
    <glyph glyph-name="zhuce" unicode="&#xe621;" 
d="M874 458h85v-586h-930v924h592v-84h-508v-755h761v501zM905 663l-85 85l-465 -471l85 -85zM240 77l157 73l-84 84zM983 790l-36 37q-9 9 -24 9t-24 -9l-37 -37l85 -84l36 36q24 24 0 48z" />
    <glyph glyph-name="kaijiang" unicode="&#xe615;" 
d="M617 547l-73 130q-13 23 -32 23t-32 -23l-73 -130l-152 -28q-26 -5 -31.5 -21.5t12.5 -36.5l105 -109l-19 -147q-3 -27 11.5 -37.5t38.5 0.5l140 64l140 -64q24 -11 38.5 0t11.5 37l-19 147l105 109q18 19 12.5 36t-31.5 22zM0 162v171v145v333q0 35 29.5 60t70.5 25h824
q41 0 70.5 -25t29.5 -60v-333v-145v-171q0 -49 -28 -91.5t-73.5 -71t-100 -52t-109 -37t-100 -22.5t-73.5 -12.5l-28 -3.5q-7 1 -18 2t-46 7t-69 13t-80 20t-85.5 28t-80 38t-69 48.5t-46.5 60.5t-18 73z" />
    <glyph glyph-name="mail" unicode="&#xe612;" 
d="M511 831q91 0 173.5 -35t142 -94t94.5 -141.5t36 -173.5q0 -91 -35.5 -174t-95 -142.5t-142.5 -94.5t-175 -35q-91 0 -173 35t-141 94.5t-94.5 142t-35.5 173.5t35 173.5t94.5 142t142.5 94.5t174 35zM761 84q95 69 128 196.5t-13 247.5q-47 122 -163.5 192.5
t-252.5 53.5q-128 -15 -224 -109.5t-116 -226.5q-16 -109 29 -210.5t112 -141.5q27 130 147 188q-124 150 -14 258q45 45 110.5 47t113.5 -39q53 -46 59 -113q8 -87 -66 -150q77 -53 100 -82.5t50 -110.5zM507 -9q94 0 181 42q23 11 17 31q-1 5 -5 21.5t-7.5 27t-7.5 19.5
q-28 56 -84.5 86t-117.5 20q-64 -9 -110 -53.5t-57 -107.5q-4 -18 0.5 -29.5t22.5 -18.5q90 -39 168 -38zM509 299q47 0 80 32.5t34 79.5q1 46 -33 80.5t-81 33.5q-45 0 -78.5 -33.5t-33.5 -79.5t33 -79t79 -34z" />
    <glyph glyph-name="jiancha" unicode="&#xe60e;" horiz-adv-x="1025" 
d="M478 130v0v0h-2l-93 2h-105v0v0q-11 0 -19 -8t-8 -19q0 -21 21 -27v0h2h2h2h104l96 -3v0v0h3h1q10 1 17 9t7 18q0 12 -8 20t-20 8zM478 288v0h-2h-2h-91h-105v0v0q-11 0 -19 -8t-8 -19q0 -21 21 -27v0h2h2h2h104h95h1v0q12 0 20 7.5t8 19t-8.5 19.5t-19.5 8zM278 444h-1
q-12 0 -19.5 -8t-7.5 -19.5t7.5 -19t19.5 -7.5h1h103h366h6v0q10 2 16.5 10t6.5 18q0 11 -8 19t-19 8h-1v0h-2l-468 -1v0zM1019 -79l-84 84q37 52 36 116q-2 75 -55.5 129t-128.5 56q-83 3 -141 -55.5t-55 -140.5q3 -75 57 -129t129 -55q65 -2 116 36l84 -84q4 -5 10.5 -5
t10.5 5l22 21q10 11 -1 22v0zM645 116q0 59 43 99t102 36q51 -3 87 -39.5t39 -85.5q4 -60 -36.5 -103t-98.5 -43q-57 0 -96.5 40t-39.5 96v0zM578 -74h-429v914h469v-208q0 -20 12.5 -35t31.5 -19l10 -1h207v-211h55v240q2 16 -12 30l-2 2l-153 148l-47 45.5t-50.5 49.5
t-6.5 5q-1 1 -5 4q-10 5 -16 5h-2h-335h-155q-20 0 -35.5 -12.5t-19.5 -31.5q-1 -3 -1 -11v-913q0 -19 13 -34.5t31 -18.5q4 -1 12 -1v0h152h276v53zM673 801l177 -169h-177v169z" />
    <glyph glyph-name="xiangxiajiantou" unicode="&#xe630;" 
d="M512 789q82 0 158 -32q72 -30 128.5 -86.5t86.5 -128.5q32 -76 32 -158t-32 -158q-30 -72 -86.5 -128.5t-128.5 -86.5q-76 -32 -158 -32t-158 32q-72 30 -128.5 86.5t-86.5 128.5q-32 76 -32 158t32 158q30 72 86.5 128.5t128.5 86.5q76 32 158 32zM512 830
q-91 0 -173.5 -35.5t-142 -95t-95 -142t-35.5 -173.5t35.5 -173.5t95 -142t142 -95t173.5 -35.5t173.5 35.5t142 95t95 142t35.5 173.5t-35.5 173.5t-95 142t-142 95t-173.5 35.5v0zM313 559l198 -389l200 389l-200 -80z" />
    <glyph glyph-name="zhifubaozhifu" unicode="&#xe783;" horiz-adv-x="1216" 
d="M1122 155q-23 9 -93.5 33.5t-128.5 44.5l-59 20q6 21 36 83q14 28 34.5 88t34.5 105.5t14 46.5h-256v96h320v64h-320v160h-192v-160h-352v-64h352v-96h-256v-64h544q-2 -21 -89 -214q-113 46 -180 61q-13 3 -40 11t-49 13t-54 9.5t-72.5 4t-86.5 -7.5q-45 -6 -82.5 -23.5
t-63 -41.5t-45 -53.5t-27 -60t-10.5 -60.5t5 -56q20 -80 90 -142.5t169 -76.5q48 -7 100.5 1t99 27t78.5 35.5t60 34.5q27 17 64.5 56.5t62.5 71.5l25 31q110 -53 172 -83q28 -14 100.5 -52t129.5 -68.5t58 -30.5v227q-12 0 -77 23q-8 4 -16 7zM279 37q-45 1 -81 10t-58 22
t-38 33.5t-23 35.5t-11 37t-4.5 30t-0.5 21q0 12 6.5 31t23 43t40.5 43t64.5 29.5t89.5 5.5q71 -9 159 -39.5t141.5 -56t51.5 -25.5q-5 -9 -16 -24t-47 -53t-75 -67t-99.5 -52.5t-122.5 -23.5z" />
    <glyph glyph-name="jiangbei" unicode="&#xe608;" 
d="M688 31q-3 11 -12 17.5t-20 6.5h-71v121q-27 -5 -54.5 -5t-54.5 5v-121h-71q-11 0 -20 -6.5t-12 -17.5l-25 -91q-4 -16 6 -29t26 -13h301v0q14 0 24 10t10 24q0 6 -3 12l-24 87v0zM868 748q-13 3 -27 3h-13v89q0 13 -9.5 22t-22.5 9h-531q-13 0 -22.5 -9t-9.5 -22v-89
h-12q-15 0 -28 -3q-55 -15 -80.5 -75.5t-6.5 -131.5q16 -61 58.5 -100t91.5 -39h9q4 -7 8 -15q1 -2 1 -3q6 -11 13 -21l1 -2q8 -11 15 -20v-1q16 -20 35 -38h0.5t0.5 -1q9 -8 19 -16h0.5t0.5 -1q42 -32 91 -47v0q13 -4 26 -7v0v0q13 -2 27 -4v0v0q14 -1 27.5 -1t27.5 1v0h1
l26 4v0h1q12 3 25 7v0q49 15 91 47q0 1 0.5 1h0.5q10 8 19 16l1 1q19 18 35 38v1q8 9 15 20l1 2q7 11 13 21q0 1 0.5 2l0.5 1q4 8 8 15h10q48 0 90.5 39t58.5 100q19 71 -6.5 131.5t-80.5 75.5v0zM157 555q-12 49 2.5 90.5t47.5 50.5q6 2 14 2q5 0 12 -2v-148q0 -13 2 -27
v-4q1 -11 3 -25q1 -3 1 -4q2 -13 5 -24l0.5 -3.5t1.5 -4.5q-29 5 -53.5 32.5t-35.5 66.5v0zM693 616l-88 -67l32 -105q2 -7 -4 -11q-3 -2 -6 -2t-5 2l-91 63l-91 -63q-6 -4 -12 0t-4 11l32 105l-88 67q-6 4 -3.5 11t9.5 7l111 2l36 104q2 7 9.5 7t9.5 -7l36 -104l111 -2
q7 0 9.5 -7t-3.5 -11v0zM904 555q-11 -39 -35.5 -66.5t-53.5 -32.5l2 4v4l6 24v4q2 13 3 25q0 1 1 4q1 14 1 27v148q7 2 13 2q7 0 14 -2q32 -9 47 -50.5t2 -90.5v0z" />
    <glyph glyph-name="jinriricheng" unicode="&#xe658;" 
d="M209 723h-91q-55 0 -55 -55v-674q0 -50 55 -55h784q55 5 55 55v674q0 52 -55 55h-73v-55q0 -77 -91 -91h-18q-83 6 -91 91v55h-219v-55q-6 -83 -91 -91h-19q-80 11 -91 91v55zM136 358v110h748v-110h-748zM136 67v91h146v-91h-146zM738 304h146v-92h-146v92zM337 304h146
v-92h-146v92zM337 158h146v-91h-146v91zM537 67v91h146v-91h-146zM738 158h146v-91h-146v91zM537 304h146v-92h-146v92zM244 772l2 -100q0 -26 18 -42q19 -16 45.5 -16t45.5 16q18 16 18 42v100q0 22 -20 42q-15 18 -43 18q-30 0 -48 -18q-18 -21 -18 -42zM773 814
q-16 18 -44 18q-29 0 -47 -18q-19 -21 -19 -42l2 -100q0 -26 18 -42q19 -16 45.5 -16t46.5 16q18 16 18 42v100q0 22 -20 42z" />
    <glyph glyph-name="shouji" unicode="&#xe605;" 
d="M506 96h-309v688h459v-543q27 7 54 7q1 0 11 -1v543q-2 1 -0.5 9.5t-3 22t-11 26.5t-24 23t-42.5 11h-273h-7h-151h-8.5t-18.5 -3.5t-23 -11t-18.5 -23.5t-8.5 -38v-816q0 -3 0.5 -8t4.5 -17.5t10.5 -22.5t21.5 -19t36 -10h335q-41 55 -41 125q0 30 7 58zM374 847h105
v-26h-105v26zM426 -20q-15 0 -25.5 10.5t-10.5 25.5t10.5 25.5t25.5 10.5t26 -10.5t11 -25.5t-11 -25.5t-26 -10.5zM829 155q-49 49 -118.5 49t-118.5 -49t-49 -117t48.5 -117t118.5 -49t119 49t49 117t-49 117zM823 82l-122 -120q-16 -13 -33 0l-70 70q-10 8 -6 20t15 15.5
t22 -5.5l55 -54l107 105q7 7 16 7t16 -7q7 -6 7 -15.5t-7 -15.5z" />
    <glyph glyph-name="duigou1" unicode="&#xe62d;" 
d="M511.5 832q-91.5 0 -174.5 -35.5t-143 -95.5t-95.5 -143t-35.5 -174t35.5 -174t95.5 -143t143 -95.5t174.5 -35.5t174 35.5t142.5 95.5t95.5 143t35.5 174t-35.5 174t-95.5 143t-142.5 95.5t-174 35.5zM761 507l-295 -294q-10 -10 -24.5 -10t-24.5 10l-155 155
q-10 10 -10 24t10 24t24 10t24 -10l132 -131l270 271q10 10 24.5 10t24.5 -10t10 -24.5t-10 -24.5z" />
    <glyph glyph-name="denghao" unicode="&#xe634;" 
d="M256 555h512q12 0 20 -8.5t8 -20.5v-57q0 -11 -8 -19.5t-20 -8.5h-512q-12 0 -20 8.5t-8 19.5v57q0 12 8 20.5t20 8.5zM256 327h512q12 0 20 -8.5t8 -19.5v-57q0 -12 -8 -20.5t-20 -8.5h-512q-12 0 -20 8.5t-8 20.5v57q0 11 8 19.5t20 8.5z" />
    <glyph glyph-name="xiangxia" unicode="&#xe616;" 
d="M1024 669l-512 -570l-512 570h1024z" />
    <glyph glyph-name="piao" unicode="&#xe617;" 
d="M62 611v-30q58 -39 123 -46t126 11t123.5 47t125.5 60t123 53t125.5 22t123.5 -30v-524q16 -8 30 -17v553q-60 40 -127.5 46.5t-130 -13.5t-127.5 -51t-130 -62.5t-127.5 -51t-130 -13.5t-127.5 46zM122 641v-30q50 -19 96.5 -17.5t96.5 14.5t96.5 35.5t97 46t97 46.5
t96.5 36.5t97 16t97 -14.5t97 -56v-523q14 -12 30 -27v554q-44 43 -90.5 66.5t-90 28t-90 -2.5t-90 -24.5t-90.5 -38.5t-90 -44t-90 -41.5t-90 -30.5t-90 -11t-90 17zM1 600v-554q44 -43 90.5 -66.5t90 -28t90 2.5t90 24.5t90.5 38.5t90 44t90 41.5t90 30.5t90 11t90 -17
v553q-43 16 -90 17t-90 -10.5t-90 -30t-90 -41.5t-90 -44t-90.5 -39t-90 -25t-90 -2.5t-90 28.5t-90.5 67zM452 89q-57 -26 -102 -14.5t-72.5 53.5t-27.5 100q0 80 57 153t145 118q84 42 143 9t59 -120q0 -83 -59 -169.5t-143 -129.5zM516 329q-14 3 -56 -6v87q25 11 36 -2
q6 -7 7 -19q6 2 16.5 7.5t14.5 7.5q-1 30 -20 39q-18 9 -54 -6v23q-11 -5 -16 -7v-24q-36 -17 -55 -47q-20 -29 -20 -56q0 -31 18 -40q19 -10 57 0v-97q-30 -11 -41 4q-6 9 -8 33q-18 -8 -31 -12q0 -31 10 -45q19 -27 70 -7v-34q3 1 9 4t7 4v34q32 19 49 39q31 35 31 82
q0 33 -24 38zM444 319q-20 -6 -31.5 -1t-11.5 23q0 14 10 32q9 17 33 29v-83zM502 239q-12 -27 -42 -43v94q23 4 32 2q16 -3 16 -26q0 -13 -6 -27z" />
    <glyph glyph-name="rules" unicode="&#xe619;" 
d="M715 296h-344q-5 0 -8.5 -3.5t-3.5 -8.5v-24q0 -5 3.5 -8.5t8.5 -3.5h344q5 0 8.5 3.5t3.5 8.5v24q0 5 -3.5 8.5t-8.5 3.5zM715 175h-344q-5 0 -8.5 -3.5t-3.5 -8.5v-24q0 -5 3.5 -8.5t8.5 -3.5h344q5 0 8.5 3.5t3.5 8.5v24q0 5 -3.5 8.5t-8.5 3.5zM715 416h-344
q-5 0 -8.5 -3.5t-3.5 -8.5v-24q0 -5 3.5 -8.5t8.5 -3.5h344q5 0 8.5 3.5t3.5 8.5v24q0 5 -3.5 8.5t-8.5 3.5zM849 90q0 -34 -23 -58.5t-56 -24.5h-453q-33 0 -56 24.5t-23 58.5v484q0 35 23 59t56 24h42v-110q0 -4 3 -7t7 -3l347 2q10 1 10 11v107h44q33 0 56 -24t23 -59
v-484zM405 670zM680 685zM405 663v32q0 11 10 11h72q10 0 10 11v0q0 27 12.5 44t35.5 17q45 0 45 -61q0 -11 10 -11h81v-3v0v-4h-1v-14h1v-7v0v-82q0 -5 -3 -8t-8 -3h-255q-10 0 -10 11v67zM793 705h-67v37q0 11 -10 11h-73q-7 0 -9 8q-18 65 -90 65q-75 0 -94 -65
q-2 -8 -10 -8h-71q-10 0 -10 -11v-37h-65q-42 0 -72 -31t-30 -76v-532q0 -44 30 -75.5t72 -31.5h499q42 0 72 31.5t30 75.5v532q0 45 -30 76t-72 31v0z" />
    <glyph glyph-name="iconfont12" unicode="&#xe643;" 
d="M812 674q-47 -15 -80 -42t-47.5 -60t-19.5 -63.5t-2 -60.5q-22 28 -38 57t-25.5 64.5t-15.5 63.5t-8.5 75.5t-2.5 76.5v89v22q-55 -22 -97.5 -55t-67.5 -71t-43 -81.5t-24 -86t-10 -85.5t-1.5 -79.5t1.5 -67.5t-1 -50q-34 29 -56.5 87.5t-28.5 93t-6 43.5
q-57 -31 -89 -105t-32 -151q0 -113 53 -209t143.5 -151.5t197.5 -55.5t197.5 55.5t143.5 151.5t53 209q0 45 -15 92t-32.5 82t-32 92t-14.5 120v0z" />
    <glyph glyph-name="tubiaozongjie11" unicode="&#xe618;" 
d="M294 806q34 -24 54 -52q6 -10 17 -23t19 -21l7 -8h232q25 26 40 46q1 1 5 6t5 6.5t4.5 6.5t5.5 7t5.5 6t6.5 6.5t6.5 5.5t7.5 6t9 6q19 12 22.5 33t-17.5 30q-14 6 -34 -2.5t-32 -8.5q-16 0 -33.5 15.5t-29.5 19.5q-24 7 -35.5 3t-26.5 -18q-8 -8 -14 -12t-8 -5l-2 -1
q-21 12 -33 25q-8 10 -26.5 12t-33.5 -7q-9 -5 -18.5 -13t-16 -12.5t-15.5 -6t-27 3.5t-29.5 8t-24.5 -5q-14 -13 -9.5 -29t19.5 -28v0zM768 500q-38 32 -71.5 67.5t-47.5 54.5l-14 19h-253q-48 -72 -126 -139q-73 -64 -112.5 -154.5t-20.5 -194.5q9 -51 37.5 -99.5t75 -90
t117.5 -66.5t157 -25q165 0 267.5 77.5t123.5 197.5q36 211 -133 353v0zM633 110h-30h-43h-19v-32t-9 -19.5t-21 -8.5q-31 0 -33 29v31h-93q-11 0 -18.5 9.5t-6.5 19.5q0 10 7.5 18t17.5 8h93v64h-89q-11 0 -18 6t-7 16q0 11 7.5 23.5t17.5 12.5h89l1 23q-72 76 -81 84
q-8 8 -10.5 18.5t5.5 23.5q11 10 24.5 6.5t23.5 -12.5q5 -6 22.5 -23.5l32.5 -32.5l15 -15q67 62 80 73q11 9 23 9t20 -10q15 -17 -10 -40l-83 -82v-21h86q14 0 22.5 -12t8.5 -22q-1 -25 -30 -25h-86l-1 -63h85q31 0 32 -27q0 -11 -7.5 -20t-17.5 -9v0zM633 110z" />
    <glyph glyph-name="zhanghu" unicode="&#xe640;" 
d="M511 375q112 0 192 76t80 184t-80 184.5t-192.5 76.5t-192 -76.5t-79.5 -184.5t79.5 -184t192.5 -76v0zM765 418q-79 -93 -190 -118l-63 -181l-62 179q-116 20 -198 114q-49 -44 -76 -102.5t-27 -124.5v-70q0 -100 74.5 -171.5t179.5 -71.5h218q105 0 179.5 71.5
t74.5 171.5v70q0 68 -29.5 128.5t-80.5 104.5v0z" />
    <glyph glyph-name="rocket" unicode="&#xe62b;" 
d="M831 250q41 -150 -58 -256q-29 -32 -72 -49.5t-82 -19t-70.5 4.5t-44.5 19q-14 14 -14 27t7 18l7 6l26 64q-3 -1 -7 -2.5t-16.5 -5t-24 -6.5t-26 -6.5t-26 -5.5t-21.5 -2t-14 2l-96 84l-102 83q-2 2 -3.5 8t-2.5 14t-1.5 18t-0.5 21v21.5t0.5 20t0.5 16.5t0.5 11l0.5 4
l-52 -45q0 -1 -1 -3t-5.5 -6t-9.5 -6t-14.5 0t-20.5 9q-15 10 -27 39t-17 66.5t4 82.5t34 81q84 122 243 109q47 60 105 104.5t112 68.5t110.5 37.5t102 16.5t85 1t60 -5t27.5 -6q4 -9 11 -28t16.5 -58t14.5 -83t2.5 -102t-15.5 -115t-45 -122.5t-80 -124.5v0zM754 678
q-1 0 -23.5 9t-47 15t-61 -5t-67.5 -44q-19 -31 -24.5 -62t-1.5 -51t16.5 -41t17.5 -26l12 -12q4 -4 13 -10t29.5 -13.5t42 -8t51 11.5t56.5 39q23 29 30.5 59.5t3 52.5t-16 43.5t-18 29.5t-12.5 13v0zM159 147q4 9 19 10.5t19 -3.5q9 -5 10.5 -19.5t-4.5 -19.5l-89 -102
q-5 -13 -17 -16t-22 3q-8 4 -9.5 19t3.5 19zM235 77q5 9 19.5 10.5t19.5 -4.5q9 -4 10.5 -19t-4.5 -19l-128 -154q-4 -9 -19 -10.5t-19 4.5q-9 4 -10.5 19t3.5 19zM306 19q4 9 19 10.5t19 -3.5q9 -5 10.5 -19.5t-3.5 -19.5l-64 -77q-5 -9 -19.5 -10t-19.5 4q-9 4 -10.5 19
t4.5 19z" />
    <glyph glyph-name="mima11" unicode="&#xe689;" 
d="M795 -126h-566q-52 0 -88.5 39t-36.5 94v397q0 55 36.5 94t88.5 39h33q-5 26 -5 51v51q0 106 74.5 180.5t180.5 74.5t180.5 -74.5t74.5 -180.5v-51q0 -25 -5 -51h33q52 0 88.5 -39t36.5 -94v-397q0 -55 -36.5 -94t-88.5 -39zM461 194v-116q0 -21 15 -36t36 -15t36 15
t15 36v116q24 13 38 36.5t14 51.5q0 42 -30 72t-73 30t-73 -30t-30 -72q0 -28 14 -51.5t38 -36.5zM665 639q0 64 -45 108.5t-108 44.5t-108 -44.5t-45 -108.5v-102h306v102z" />
  </font>
</defs>
</svg>
